<svg id="Capa_1" data-name="Capa 1" xmlns="http://www.w3.org/2000/svg" viewBox="0 0 668.28 562.21"><defs><style>.cls-1{fill:#ff2876;}</style></defs><path class="cls-1" d="M305.48,506.07a21.22,21.22,0,1,0,25.28,34.1,105.47,105.47,0,0,1,126.71,0,21.22,21.22,0,0,0,25.28-34.1,147.87,147.87,0,0,0-177.27,0Z" transform="translate(-121.94 -125.95)"/><ellipse class="cls-1" cx="348.18" cy="232.52" rx="25.33" ry="38"/><ellipse class="cls-1" cx="196.19" cy="232.52" rx="25.33" ry="38"/><path class="cls-1" d="M781.48,238.39a57.34,57.34,0,0,0-17.76-17.86,57.07,57.07,0,0,0-68.12-68.12,57,57,0,0,0-96.34,0,57.15,57.15,0,0,0-63.91,31.12l-.38-.24a278.79,278.79,0,0,0-139.4-41.16c-50.71-1.06-98.59,12.3-138.51,38.64a18.87,18.87,0,0,0,20.79,31.5c66.72-44.05,162-42.81,237.15,3,2.37,1.56,4.9,3,7.34,4.37,1.83,1,3.72,2.1,5.44,3.17a57,57,0,0,0,3.36,94A57.07,57.07,0,0,0,599.26,385a56.8,56.8,0,0,0,29.16,23.17A234.51,234.51,0,1,1,191,298.74a18.87,18.87,0,1,0-32.66-18.9,270.85,270.85,0,0,0-36.29,144.83A272.09,272.09,0,0,0,354.79,685.31a273.09,273.09,0,0,0,98-3.52A271.92,271.92,0,0,0,666.18,408.3a56.82,56.82,0,0,0,11.57-5.55A57.41,57.41,0,0,0,695.6,385a57.07,57.07,0,0,0,68.12-68.12,57,57,0,0,0,17.76-78.48Zm-49,64.05a14.58,14.58,0,0,0-1,11.19,15.22,15.22,0,0,0,1,2.48,27.73,27.73,0,0,1-37.57,37.59A14.69,14.69,0,0,0,675,359.85a13.89,13.89,0,0,0-1,2.49,27.74,27.74,0,0,1-53.15,0,14.7,14.7,0,0,0-14-10.32,14.89,14.89,0,0,0-4.37.66,15.53,15.53,0,0,0-2.49,1,27.74,27.74,0,0,1-37.57-37.6,14.7,14.7,0,0,0-8.65-20.84,27.74,27.74,0,0,1,0-53.13l.32-.1V242a14.68,14.68,0,0,0,9.33-18.27,15.14,15.14,0,0,0-1-2.43A27.74,27.74,0,0,1,600,183.7a14.7,14.7,0,0,0,20.84-8.65,27.75,27.75,0,0,1,53.15,0,14.67,14.67,0,0,0,18.36,9.66,14.07,14.07,0,0,0,2.48-1,27.74,27.74,0,0,1,37.58,37.59,14.7,14.7,0,0,0,8.65,20.84,27.73,27.73,0,0,1,0,53.13A14.62,14.62,0,0,0,732.44,302.44Z" transform="translate(-121.94 -125.95)"/><path class="cls-1" d="M647.43,239.8a28.91,28.91,0,1,0,28.91,28.9A28.94,28.94,0,0,0,647.43,239.8Z" transform="translate(-121.94 -125.95)"/></svg>